<svg xmlns="http://www.w3.org/2000/svg" xmlns:svg="http://www.w3.org/2000/svg" xmlns:xlink="http://www.w3.org/1999/xlink" id="Capa_1" x="0" y="0" version="1.1" viewBox="0 0 50 50" xml:space="preserve" style="enable-background:new 0 0 50 50"><style type="text/css">.st0{fill:#f55}.st1{fill:#fff}.st2,.st3{fill:none;stroke:#fff;stroke-width:2;stroke-miterlimit:10}.st3{stroke-width:3}</style><circle id="circle2" cx="25" cy="25" r="25" class="st0"/><g><g><path d="M36,33.8c0,1.6-1.3,3-3,3H17c-1.6,0-3-1.4-3-3V21.9c0-0.1,0.1-0.2,0.2-0.2h21.4c0.1,0,0.2,0.1,0.2,0.2v11.9 H36z" class="st1"/><path d="M35.8,33.8c0,1.6-1.3,3-3,3H17c-1.6,0-3-1.4-3-3V21.9c0-0.1,0.1-0.2,0.2-0.2h21.4c0.1,0,0.2,0.1,0.2,0.2V33.8 L35.8,33.8z" class="st2"/></g><path d="M18.7,21.3v-3.9c0-5,2.8-7.3,6.3-7.3s6.3,2.3,6.3,7.3v3.9" class="st3"/></g></svg>