<svg xmlns="http://www.w3.org/2000/svg" xmlns:svg="http://www.w3.org/2000/svg" id="Capa_1" x="0" y="0" version="1.1" viewBox="0 0 58.981 58.981" xml:space="preserve" style="enable-background:new 0 0 58.981 58.981"><metadata id="metadata65"/><g id="g18"><polygon id="polygon2" points=".482 0 .482 58 45.482 58 45.482 14 31.482 0" style="fill:#efebde"/><g id="g14"><path id="path4" d="m 10.482,23 h 25 c 0.552,0 1,-0.447 1,-1 0,-0.553 -0.448,-1 -1,-1 h -25 c -0.552,0 -1,0.447 -1,1 0,0.553 0.447,1 1,1 z" style="fill:#d5d0bb"/><path id="path6" d="m 10.482,15 h 10 c 0.552,0 1,-0.447 1,-1 0,-0.553 -0.448,-1 -1,-1 h -10 c -0.552,0 -1,0.447 -1,1 0,0.553 0.447,1 1,1 z" style="fill:#d5d0bb"/><path id="path8" d="m 35.482,29 h -25 c -0.552,0 -1,0.447 -1,1 0,0.553 0.448,1 1,1 h 25 c 0.552,0 1,-0.447 1,-1 0,-0.553 -0.448,-1 -1,-1 z" style="fill:#d5d0bb"/><path id="path10" d="m 35.482,37 h -25 c -0.552,0 -1,0.447 -1,1 0,0.553 0.448,1 1,1 h 25 c 0.552,0 1,-0.447 1,-1 0,-0.553 -0.448,-1 -1,-1 z" style="fill:#d5d0bb"/><path id="path12" d="m 35.482,45 h -25 c -0.552,0 -1,0.447 -1,1 0,0.553 0.448,1 1,1 h 25 c 0.552,0 1,-0.447 1,-1 0,-0.553 -0.448,-1 -1,-1 z" style="fill:#d5d0bb"/></g><polygon id="polygon16" points="45.482 14 31.482 0 31.482 14" style="fill:#d5d0bb"/></g><g id="g1" transform="matrix(0.5,0,0,0.5,27.5,28)"><path style="fill:#cae1e8;fill-opacity:1" id="path2-6" d="M 30,1 C 13.984,1 1,13.984 1,30 1,46.016 13.984,59 30,59 46.016,59 59,46.016 59,30 59,13.984 46.016,1 30,1 Z m 0,38 c -4.971,0 -9,-4.029 -9,-9 0,-4.971 4.029,-9 9,-9 4.971,0 9,4.029 9,9 0,4.971 -4.029,9 -9,9 z"/><path style="fill:#b5c4ee;fill-opacity:1" id="path4-7" d="m 4.373,16.425 14.808,8.095 c 0.534,-0.977 1.208,-1.898 2.035,-2.725 0.827,-0.827 1.749,-1.5 2.725,-2.035 L 15.738,4.753 C 10.926,7.477 6.97,11.533 4.373,16.425 Z"/><path style="fill:#b5c4ee;fill-opacity:1" id="path6-5" d="M 55.259,44.242 40.182,36 c -0.534,0.977 -1.208,1.898 -2.035,2.726 -0.827,0.827 -1.749,1.5 -2.726,2.035 l 8.133,14.877 c 4.908,-2.601 8.977,-6.568 11.705,-11.396 z"/><path style="fill:#fff" id="path8-3" d="m 30,15 c -8.284,0 -15,6.716 -15,15 0,8.284 6.716,15 15,15 8.284,0 15,-6.716 15,-15 0,-8.284 -6.716,-15 -15,-15 z m 0,22.5 c -4.142,0 -7.5,-3.358 -7.5,-7.5 0,-4.142 3.358,-7.5 7.5,-7.5 4.142,0 7.5,3.358 7.5,7.5 0,4.142 -3.358,7.5 -7.5,7.5 z"/><path style="fill:#e7eced" id="path10-5" d="m 30,19.167 c -5.983,0 -10.833,4.85 -10.833,10.833 0,5.983 4.85,10.833 10.833,10.833 5.983,0 10.833,-4.85 10.833,-10.833 0,-5.983 -4.85,-10.833 -10.833,-10.833 z m 0,16.666 c -3.222,0 -5.833,-2.612 -5.833,-5.833 0,-3.221 2.612,-5.833 5.833,-5.833 3.221,0 5.833,2.612 5.833,5.833 0,3.221 -2.611,5.833 -5.833,5.833 z"/><path style="fill:#7383bf" id="path12-6" d="M 30,0 C 13.458,0 0,13.458 0,30 0,46.542 13.458,60 30,60 46.542,60 60,46.542 60,30 60,13.458 46.542,0 30,0 Z m 0,58 C 14.561,58 2,45.439 2,30 2,14.561 14.561,2 30,2 45.439,2 58,14.561 58,30 58,45.439 45.439,58 30,58 Z"/></g></svg>