<svg xmlns="http://www.w3.org/2000/svg" xmlns:svg="http://www.w3.org/2000/svg" id="svg1242" width="125mm" height="125mm" version="1.1" viewBox="0 0 125 125"><title id="title2206">CD Icon</title><defs id="defs1236"><clipPath id="clipPath1988" clipPathUnits="userSpaceOnUse"><circle style="display:block;fill:#fff;fill-opacity:1;stroke-width:.0712708" id="circle1990" cx="62.5" cy="62.5" r="11"/></clipPath><clipPath id="clipPath2076" clipPathUnits="userSpaceOnUse"><path id="lpe_path-effect2080" d="m 57.5,57.5 h 64.27792 v 64.27792 H 57.5 Z m 16,5 a 11,11 0 0 0 -11,-11 11,11 0 0 0 -11,11 11,11 0 0 0 11,11 11,11 0 0 0 11,-11 z" class="powerclip" style="fill:#fff;fill-opacity:1;stroke-width:.0712708"/></clipPath><clipPath id="clipPath2076-5" clipPathUnits="userSpaceOnUse"><circle style="display:none;fill:#fff;fill-opacity:1;stroke-width:.0712708" id="circle2078-9" cx="62.5" cy="62.5" r="11" d="m 73.5,62.5 a 11,11 0 0 1 -11,11 11,11 0 0 1 -11,-11 11,11 0 0 1 11,-11 11,11 0 0 1 11,11 z"/><path id="lpe_path-effect2080-2" d="m 57.5,57.5 h 64.27792 v 64.27792 H 57.5 Z m 16,5 a 11,11 0 0 0 -11,-11 11,11 0 0 0 -11,11 11,11 0 0 0 11,11 11,11 0 0 0 11,-11 z" class="powerclip" style="fill:#fff;fill-opacity:1;stroke-width:.0712708"/></clipPath><clipPath id="clipath_lpe_path-effect2142" clipPathUnits="userSpaceOnUse"><path id="lpe_path-effect2142" d="m 57.5,57.5 h 64.27792 v 64.27792 H 57.5 Z m 16,5 a 11,11 0 0 0 -11,-11 11,11 0 0 0 -11,11 11,11 0 0 0 11,11 11,11 0 0 0 11,-11 z" class="powerclip" style="fill:#fff;fill-opacity:1;stroke-width:.0712708"/></clipPath><clipPath id="clipPath1988-8" clipPathUnits="userSpaceOnUse"><circle style="display:none;fill:#fff;fill-opacity:1;stroke-width:.0712708" id="circle1990-9" cx="62.5" cy="62.5" r="11" d="m 73.5,62.5 a 11,11 0 0 1 -11,11 11,11 0 0 1 -11,-11 11,11 0 0 1 11,-11 11,11 0 0 1 11,11 z"/><path id="lpe_path-effect1992-7" d="M 41,41 H 84 V 84 H 41 Z m 32.5,21.5 a 11,11 0 0 0 -11,-11 11,11 0 0 0 -11,11 11,11 0 0 0 11,11 11,11 0 0 0 11,-11 z" class="powerclip" style="fill:#fff;fill-opacity:1;stroke-width:.0712708"/></clipPath><clipPath id="clipath_lpe_path-effect2180" clipPathUnits="userSpaceOnUse"><path id="lpe_path-effect2180" d="M 41,41 H 84 V 84 H 41 Z m 32.5,21.5 a 11,11 0 0 0 -11,-11 11,11 0 0 0 -11,11 11,11 0 0 0 11,11 11,11 0 0 0 11,-11 z" class="powerclip" style="fill:#fff;fill-opacity:1;stroke-width:.0712708"/></clipPath><clipPath id="clipPath2188" clipPathUnits="userSpaceOnUse"><path id="lpe_path-effect2192" d="m 35.5,35.5 h 54 v 54 h -54 z M 79,62.5 A 16.5,16.5 0 0 0 62.5,46 16.5,16.5 0 0 0 46,62.5 16.5,16.5 0 0 0 62.5,79 16.5,16.5 0 0 0 79,62.5 Z" class="powerclip" style="fill:#bebebe;fill-opacity:.602295;stroke-width:.106906"/></clipPath><clipPath id="clipPath906" clipPathUnits="userSpaceOnUse"><circle style="display:none;fill:#fff;fill-opacity:1;stroke-width:.0712708" id="circle908" cx="62.5" cy="62.5" r="11" d="m 73.5,62.5 a 11,11 0 0 1 -11,11 11,11 0 0 1 -11,-11 11,11 0 0 1 11,-11 11,11 0 0 1 11,11 z"/><path id="lpe_path-effect910" d="m -1.25,-1.25 h 127.5 v 127.5 H -1.25 Z M 73.5,62.5 a 11,11 0 0 0 -11,-11 11,11 0 0 0 -11,11 11,11 0 0 0 11,11 11,11 0 0 0 11,-11 z" class="powerclip" style="fill:#fff;fill-opacity:1;stroke-width:.0712708"/></clipPath><clipPath id="clipPath914" clipPathUnits="userSpaceOnUse"><circle style="display:none;fill:#fff;fill-opacity:1;stroke-width:.0712708" id="circle916" cx="62.5" cy="62.5" r="11" d="m 73.5,62.5 a 11,11 0 0 1 -11,11 11,11 0 0 1 -11,-11 11,11 0 0 1 11,-11 11,11 0 0 1 11,11 z"/><path id="lpe_path-effect918" d="m -5.25,-5.25 h 135.5 v 135.5 H -5.25 Z M 73.5,62.5 a 11,11 0 0 0 -11,-11 11,11 0 0 0 -11,11 11,11 0 0 0 11,11 11,11 0 0 0 11,-11 z" class="powerclip" style="fill:#fff;fill-opacity:1;stroke-width:.0712708"/></clipPath></defs><metadata id="metadata1239"/><g id="layer1"><rect style="fill:#4d4d4d;stroke-width:2.00000006;stroke-miterlimit:4;stroke-dasharray:none;stroke:#b2b2b2;stroke-opacity:1" id="rect945" width="125" height="125" x="0" y="0"/><text style="font-size:98.7778px;line-height:1.25;font-family:Roboto;-inkscape-font-specification:Roboto;letter-spacing:0;word-spacing:0;fill:#b3b3b3;stroke-width:.264583" id="text5521" x="39.301" y="97.805" xml:space="preserve"><tspan id="tspan5519" x="39.301" y="97.805" style="font-size:98.7778px;fill:#b3b3b3;stroke-width:.264583">?</tspan></text></g></svg>