<svg xmlns="http://www.w3.org/2000/svg" id="Layer_2" width="61.6" height="61.6" data-name="Layer 2" viewBox="0 0 61.6 61.6"><defs><style>.cls-1{fill:#c9c9c9;stroke-width:0}</style></defs><path d="m36.3,30.8l15.66-15.66c1.52-1.52,1.52-3.98,0-5.51-1.52-1.52-3.99-1.52-5.5,0l-15.66,15.66-15.66-15.66c-1.52-1.52-3.98-1.52-5.5,0-1.52,1.52-1.52,3.98,0,5.51l15.66,15.66-15.66,15.66c-1.52,1.52-1.52,3.98,0,5.5.76.76,1.76,1.14,2.75,1.14s1.99-.38,2.75-1.14l15.66-15.66,15.66,15.66c.76.76,1.76,1.14,2.75,1.14s1.99-.38,2.75-1.14c1.52-1.52,1.52-3.98,0-5.5l-15.66-15.66Z" class="cls-1"/></svg>